<?xml version="1.0" encoding="utf-8"?>
<svg viewBox="0 0 1024 1024" xmlns="http://www.w3.org/2000/svg">
  <defs>
    <linearGradient gradientUnits="userSpaceOnUse" x1="5917.921" y1="-4352.303" x2="5917.921" y2="-2720.19"
      id="gradient-0" gradientTransform="matrix(0.926849, 0.375432, -0.237038, 0.585186, -215.324005, -3869.564453)">
      <stop offset="0" style="stop-color: rgb(56.078% 33.333% 85.49%)" />
      <stop offset="1" style="stop-color: rgb(58, 34, 91);" />
    </linearGradient>
    <linearGradient gradientUnits="userSpaceOnUse" x1="5917.921" y1="-4352.303" x2="5917.921" y2="-2720.19"
      id="gradient-1" gradientTransform="matrix(0.74409, 0.486671, -0.190298, 0.758574, -860.53064, -4150.027344)">
      <stop offset="0" style="stop-color: rgb(56.078% 33.333% 85.49%)" />
      <stop offset="1" style="stop-color: rgb(58, 34, 91);" />
    </linearGradient>
    <linearGradient gradientUnits="userSpaceOnUse" x1="5917.921" y1="-4352.303" x2="5917.921" y2="-2720.19"
      id="gradient-2" gradientTransform="matrix(0.717982, 0.375432, -0.183621, 0.585186, -1746.305298, -3766.80127)">
      <stop offset="0" style="stop-color: rgb(56.078% 33.333% 85.49%)" />
      <stop offset="1" style="stop-color: rgb(58, 34, 91);" />
    </linearGradient>
    <linearGradient gradientUnits="userSpaceOnUse" x1="5917.921" y1="-4352.303" x2="5917.921" y2="-2720.19"
      id="gradient-3" gradientTransform="matrix(1.227096, 0.203011, -0.313825, 0.316434, -6096.14209, -3363.213867)">
      <stop offset="0" style="stop-color: rgb(56.078% 33.333% 85.49%)" />
      <stop offset="1" style="stop-color: rgb(58, 34, 91);" />
    </linearGradient>
    <linearGradient gradientUnits="userSpaceOnUse" x1="5917.921" y1="-4352.303" x2="5917.921" y2="-2720.19"
      id="gradient-4" gradientTransform="matrix(0.770199, 0.247507, -0.196975, 0.385789, 1838.706055, -3552.772949)">
      <stop offset="0" style="stop-color: rgb(56.078% 33.333% 85.49%)" />
      <stop offset="1" style="stop-color: rgb(58, 34, 91);" />
    </linearGradient>
    <linearGradient gradientUnits="userSpaceOnUse" x1="5917.921" y1="-4352.303" x2="5917.921" y2="-2720.19"
      id="gradient-5" gradientTransform="matrix(0.652711, 0.258631, -0.166928, 0.403128, 3553.018555, -3536.692139)">
      <stop offset="0" style="stop-color: rgb(56.078% 33.333% 85.49%)" />
      <stop offset="1" style="stop-color: rgb(58, 34, 91);" />
    </linearGradient>
    <style>
      @import url(https://fonts.googleapis.com/css2?family=Dancing+Script%3Aital%2Cwght%400%2C400%3B0%2C500%3B0%2C600%3B0%2C700&amp;display=swap);
    </style>
  </defs>
  <g transform="matrix(0.10000000149011612, 0, 0, -0.10000000149011612, 0, 1024)" fill="#000000" stroke="none">
    <path
      d="M 5086.077 9768.216 C 5086.077 9725.032 5091.649 9711.102 5112.545 9705.53 C 5133.44 9699.958 5140.405 9708.316 5144.584 9737.569 C 5151.549 9786.325 5140.405 9812.792 5111.151 9818.364 C 5090.256 9821.15 5086.077 9811.399 5086.077 9768.216 Z"
      style="fill: rgb(255, 255, 255);" />
    <path
      d="M 5093.494 9699.809 C 5079.564 9685.879 5080.957 9613.442 5094.887 9605.084 C 5115.783 9592.546 5133.892 9617.621 5133.892 9658.018 C 5132.499 9698.416 5112.997 9717.918 5093.494 9699.809 Z"
      style="fill: rgb(160, 0, 0);" />
    <path
      d="M 5083.743 9878.116 C 5083.743 9834.932 5089.315 9821.002 5110.211 9815.43 C 5131.106 9809.858 5138.071 9818.216 5142.25 9847.469 C 5149.215 9896.225 5138.071 9922.692 5108.817 9928.264 C 5087.922 9931.05 5083.743 9921.299 5083.743 9878.116 Z"
      style="fill: rgb(160, 0, 0);" />
    <path
      d="M 5095.828 9589.909 C 5081.898 9575.979 5083.291 9503.542 5097.221 9495.184 C 5118.117 9482.646 5136.226 9507.721 5136.226 9548.118 C 5134.833 9588.516 5115.331 9608.018 5095.828 9589.909 Z"
      style="fill: rgb(255, 255, 255);" />
    <path
      d="M 5093.494 9489.463 C 5087.922 9485.284 5083.743 9462.995 5083.743 9440.707 C 5083.743 9408.668 5089.315 9401.702 5115.783 9401.702 C 5143.643 9401.702 5147.822 9407.274 5142.25 9450.458 C 5136.678 9495.035 5115.783 9513.144 5093.494 9489.463 Z"
      style="fill: rgb(160, 0, 0);" />
    <path
      d="M 5095.828 9379.563 C 5090.256 9375.384 5086.077 9353.095 5086.077 9330.807 C 5086.077 9298.768 5091.649 9291.802 5118.117 9291.802 C 5145.977 9291.802 5150.156 9297.374 5144.584 9340.558 C 5139.012 9385.135 5118.117 9403.244 5095.828 9379.563 Z"
      style="fill: rgb(255, 255, 255);" />
    <path
      d="M 5080.957 9227.575 C 5085.136 9191.356 5093.494 9178.819 5112.997 9178.819 C 5133.892 9178.819 5139.464 9188.57 5139.464 9227.575 C 5139.464 9269.365 5135.285 9276.33 5107.424 9276.33 C 5079.564 9276.33 5075.385 9270.758 5080.957 9227.575 Z"
      style="fill: rgb(160, 0, 0);" />
    <path
      d="M 5083.291 9117.675 C 5087.47 9081.456 5095.828 9068.919 5115.331 9068.919 C 5136.226 9068.919 5141.798 9078.67 5141.798 9117.675 C 5141.798 9159.465 5137.619 9166.43 5109.758 9166.43 C 5081.898 9166.43 5077.719 9160.858 5083.291 9117.675 Z"
      style="fill: rgb(255, 255, 255);" />
    <path
      d="M 5079.112 8919.866 C 5081.898 8905.936 5084.684 8878.075 5084.684 8857.18 C 5086.077 8825.14 5093.042 8818.175 5120.903 8818.175 C 5152.942 8818.175 5155.728 8823.747 5155.728 8880.861 C 5155.728 8940.761 5154.335 8943.547 5115.331 8943.547 C 5084.684 8943.547 5076.326 8937.975 5079.112 8919.866 Z"
      style="fill: rgb(255, 255, 255);" />
    <path
      d="M 5076.778 9029.766 C 5079.564 9015.836 5082.35 8987.975 5082.35 8967.08 C 5083.743 8935.04 5090.708 8928.075 5118.569 8928.075 C 5150.608 8928.075 5153.394 8933.647 5153.394 8990.761 C 5153.394 9050.661 5152.001 9053.447 5112.997 9053.447 C 5082.35 9053.447 5073.992 9047.875 5076.778 9029.766 Z"
      style="fill: rgb(160, 0, 0);" />
    <path
      d="M 5072.147 8609.222 C 5072.147 8543.75 5074.933 8539.571 5106.972 8539.571 C 5132.047 8539.571 5143.191 8549.322 5150.156 8574.396 C 5165.479 8632.903 5145.977 8678.873 5106.972 8678.873 C 5074.933 8678.873 5072.147 8674.694 5072.147 8609.222 Z"
      style="fill: rgb(255, 255, 255);" />
    <path
      d="M 5069.813 8719.122 C 5069.813 8653.65 5072.599 8649.471 5104.638 8649.471 C 5129.713 8649.471 5140.857 8659.222 5147.822 8684.296 C 5163.145 8742.803 5143.643 8788.773 5104.638 8788.773 C 5072.599 8788.773 5069.813 8784.594 5069.813 8719.122 Z"
      style="fill: rgb(160, 0, 0);" />
    <ellipse style="stroke: rgb(0, 0, 0); fill: rgb(255, 236, 207);" transform="matrix(1, 0, 0, -1, 0, 0)" cx="5117"
      cy="-4300" rx="4050" ry="4050" />
    <path
      d="M 5058.217 7327.642 L 5058.217 7257.991 L 5113.938 7257.991 C 5168.265 7257.991 5169.658 7259.384 5169.658 7305.354 C 5169.658 7380.577 5158.514 7397.294 5105.579 7397.294 L 5058.217 7397.294 L 5058.217 7327.642 Z"
      style="fill: rgb(255, 255, 255);" />
    <path
      d="M 5055.883 7437.542 L 5055.883 7367.891 L 5111.604 7367.891 C 5165.931 7367.891 5167.324 7369.284 5167.324 7415.254 C 5167.324 7490.477 5156.18 7507.194 5103.245 7507.194 L 5055.883 7507.194 L 5055.883 7437.542 Z"
      style="fill: rgb(160, 0, 0);" />
    <path
      d="M 5072.147 7585.351 C 5072.147 7525.451 5073.54 7522.665 5113.938 7522.665 C 5154.335 7522.665 5155.728 7525.451 5155.728 7585.351 C 5155.728 7645.251 5154.335 7648.037 5113.938 7648.037 C 5073.54 7648.037 5072.147 7645.251 5072.147 7585.351 Z"
      style="fill: rgb(255, 255, 255);" />
    <path
      d="M 5069.813 7695.251 C 5069.813 7635.351 5071.206 7632.565 5111.604 7632.565 C 5152.001 7632.565 5153.394 7635.351 5153.394 7695.251 C 5153.394 7755.151 5152.001 7757.937 5111.604 7757.937 C 5071.206 7757.937 5069.813 7755.151 5069.813 7695.251 Z"
      style="fill: rgb(160, 0, 0);" />
    <path
      d="M 5072.147 7831.916 C 5072.147 7767.837 5073.54 7765.051 5111.151 7766.444 C 5143.191 7766.444 5150.156 7773.409 5155.728 7815.2 C 5166.872 7883.458 5158.514 7898.781 5112.545 7898.781 C 5073.54 7898.781 5072.147 7895.995 5072.147 7831.916 Z"
      style="fill: rgb(255, 255, 255);" />
    <path
      d="M 5069.813 7941.816 C 5069.813 7877.737 5071.206 7874.951 5108.817 7876.344 C 5140.857 7876.344 5147.822 7883.309 5153.394 7925.1 C 5164.538 7993.358 5156.18 8008.681 5110.211 8008.681 C 5071.206 8008.681 5069.813 8005.895 5069.813 7941.816 Z"
      style="fill: rgb(160, 0, 0);" />
    <path
      d="M 5072.147 8092.411 C 5072.147 8025.546 5073.54 8024.153 5113.938 8024.153 C 5154.335 8024.153 5155.728 8025.546 5155.728 8091.018 C 5155.728 8153.704 5154.335 8156.49 5113.938 8157.883 C 5073.54 8159.276 5072.147 8157.883 5072.147 8092.411 Z"
      style="fill: rgb(255, 255, 255);" />
    <path
      d="M 5069.813 8202.311 C 5069.813 8135.446 5071.206 8134.053 5111.604 8134.053 C 5152.001 8134.053 5153.394 8135.446 5153.394 8200.918 C 5153.394 8263.604 5152.001 8266.39 5111.604 8267.783 C 5071.206 8269.176 5069.813 8267.783 5069.813 8202.311 Z"
      style="fill: rgb(160, 0, 0);" />
    <path
      d="M 5072.147 8344.548 C 5072.147 8276.29 5073.54 8274.897 5113.938 8274.897 C 5154.335 8274.897 5155.728 8276.29 5155.728 8344.548 C 5155.728 8412.806 5154.335 8414.199 5113.938 8414.199 C 5073.54 8414.199 5072.147 8412.806 5072.147 8344.548 Z"
      style="fill: rgb(255, 255, 255);" />
    <path
      d="M 5069.813 8454.448 C 5069.813 8386.19 5071.206 8384.797 5111.604 8384.797 C 5152.001 8384.797 5153.394 8386.19 5153.394 8454.448 C 5153.394 8522.706 5152.001 8524.099 5111.604 8524.099 C 5071.206 8524.099 5069.813 8522.706 5069.813 8454.448 Z"
      style="fill: rgb(160, 0, 0);" />
    <rect x="2444.733" y="-2459.811" width="5367.839" height="737.473"
      style="stroke: rgb(0, 0, 0); paint-order: fill; fill: rgb(255, 255, 255);"
      transform="matrix(1, 0, 0, -1, 0, 0)" />
    <rect x="5678.736" y="-4412.303" width="858.371" height="1632.113"
      style="stroke: rgb(0, 0, 0); paint-order: fill; fill-opacity: 0.6; fill: url('#gradient-0');"
      transform="matrix(1, 0, 0, -1, 0, 0)" />
    <rect x="3871.321" y="-4853.578" width="689.115" height="2115.702"
      style="stroke: rgb(0, 0, 0); paint-order: fill; fill-opacity: 0.6; fill: url('#gradient-1');"
      transform="matrix(1, 0, 0, -1, 0, 0)" />
    <rect x="2819.516" y="-4309.54" width="664.935" height="1632.113"
      style="stroke: rgb(0, 0, 0); paint-order: fill; fill-opacity: 0.6; fill: url('#gradient-2');"
      transform="matrix(1, 0, 0, -1, 0, 0)" />
    <rect x="1707.261" y="-3656.695" width="1136.435" height="882.55"
      style="stroke: rgb(0, 0, 0); paint-order: fill; fill-opacity: 0.6; fill: url('#gradient-3');"
      transform="matrix(1, 0, 0, -1, 0, 0)" />
    <rect x="6736.587" y="-3910.578" width="713.294" height="1075.986"
      style="stroke: rgb(0, 0, 0); paint-order: fill; fill-opacity: 0.6; fill: url('#gradient-4');"
      transform="matrix(1, 0, 0, -1, 0, 0)" />
    <rect x="7703.766" y="-3910.579" width="604.487" height="1124.344"
      style="stroke: rgb(0, 0, 0); paint-order: fill; fill-opacity: 0.6; fill: url('#gradient-5');"
      transform="matrix(1, 0, 0, -1, 0, 0)" />
    <path
      d="M 4997.376 7246.699 C 4963.943 7238.34 4965.336 7220.231 5002.948 7195.157 C 5037.773 7170.082 5036.38 7167.296 4980.66 7149.187 C 4899.864 7124.113 4881.755 7079.536 4877.576 6885.906 L 4872.004 6711.778 L 4915.188 6695.062 C 4968.122 6675.56 4969.515 6664.416 4920.76 6637.948 C 4858.074 6605.909 4767.527 6502.825 4734.095 6427.602 C 4689.518 6328.698 4690.911 6200.54 4739.667 6107.207 C 4780.064 6026.412 4873.397 5934.473 4944.441 5905.219 C 5001.555 5882.931 5014.092 5867.608 5014.092 5824.424 C 5014.092 5803.529 5002.948 5788.205 4979.267 5779.847 C 4941.655 5765.917 4934.69 5746.415 4961.157 5729.698 C 4972.301 5722.733 4969.515 5714.375 4952.799 5701.838 C 4919.367 5678.157 4927.725 5607.113 4965.336 5601.541 C 4991.804 5597.361 4993.197 5590.396 4983.446 5392.587 C 4977.873 5279.753 4961.157 4871.597 4944.441 4484.337 C 4927.725 4097.078 4911.008 3690.315 4905.436 3578.874 L 4895.685 3376.886 L 4788.423 3372.707 L 4679.767 3368.527 L 4679.767 3119.177 L 4679.767 2868.433 L 4636.583 2868.433 L 4594.793 2868.433 L 4597.579 3910.413 L 4600.365 4951 L 4562.753 4955.179 C 4527.928 4959.358 4526.535 4962.144 4526.535 5063.834 L 4526.535 5166.918 L 4470.814 5166.918 L 4415.093 5166.918 L 4415.093 5285.325 L 4415.093 5403.731 L 4279.97 5403.731 C 4204.747 5403.731 4119.772 5399.552 4091.912 5395.373 L 4038.977 5385.622 L 4038.977 5276.967 L 4038.977 5166.918 L 3991.614 5166.918 C 3938.68 5166.918 3924.749 5141.843 3937.287 5068.013 C 3948.431 4996.969 3931.715 4960.751 3888.531 4955.179 L 3850.919 4951 L 3843.954 3913.199 L 3836.989 2875.398 L 3785.447 2871.219 L 3733.906 2867.04 L 3729.726 3038.381 L 3725.547 3209.723 L 3618.285 3213.902 L 3509.629 3218.081 L 3509.629 3766.932 L 3509.629 4317.175 L 3154.409 4317.175 L 2799.188 4317.175 L 2799.188 4003.745 L 2799.188 3690.315 L 2248.945 3690.315 L 1698.702 3690.315 L 1698.702 3279.374 L 1698.702 2868.433 L 1516.216 2868.433 L 1335.123 2868.433 L 1343.481 2837.786 C 1365.769 2765.349 1453.53 2564.754 1525.967 2418.487 C 1737.706 1997.795 1980.092 1667.649 2321.382 1334.716 C 2757.398 911.238 3289.532 592.236 3902.461 388.855 C 4558.574 170.151 5377.671 140.897 6058.858 312.239 C 6669.001 465.471 7234.568 749.648 7688.693 1135.514 C 7882.323 1299.891 8205.504 1639.788 8314.159 1795.807 C 8542.615 2120.38 8686.096 2366.945 8794.752 2619.082 C 8836.542 2716.594 8875.547 2811.319 8881.119 2832.214 L 8889.477 2868.433 L 8778.035 2868.433 L 8667.987 2868.433 L 8658.236 2921.368 C 8654.057 2949.228 8649.877 3027.237 8649.877 3095.495 L 8649.877 3216.688 L 8531.471 3216.688 L 8413.064 3216.688 L 8413.064 3041.167 L 8413.064 2867.04 L 8375.452 2871.219 L 8336.448 2875.398 L 8332.269 3415.89 L 8329.483 3954.989 L 8011.874 3954.989 L 7695.658 3954.989 L 7698.444 3443.751 C 7701.23 3160.967 7698.444 2917.189 7694.265 2900.472 C 7685.907 2871.219 7677.549 2868.433 7589.788 2868.433 L 7493.67 2868.433 L 7490.884 3401.96 L 7486.705 3934.094 L 7249.891 3934.094 C 7120.34 3935.487 6986.61 3936.88 6954.571 3938.273 L 6894.671 3941.059 L 6894.671 4060.859 C 6894.671 4176.48 6893.278 4179.266 6864.024 4175.087 C 6834.771 4170.908 6831.985 4162.55 6825.02 4052.501 L 6818.055 3934.094 L 6773.478 3929.915 L 6727.508 3925.736 L 6727.508 3396.388 L 6727.508 2868.433 L 6657.857 2868.433 L 6588.206 2868.433 L 6588.206 3725.141 L 6588.206 4581.849 L 6504.625 4581.849 C 6430.795 4581.849 6421.043 4584.635 6421.043 4609.709 C 6421.043 4634.784 6411.292 4637.57 6304.03 4637.57 L 6188.409 4637.57 L 6178.658 4696.077 C 6170.3 4749.012 6167.514 4751.798 6150.797 4726.723 C 6139.653 4712.793 6129.902 4687.719 6127.116 4672.395 C 6121.544 4645.928 6109.007 4644.535 5950.202 4640.356 C 5791.398 4637.57 5780.254 4634.784 5780.254 4609.709 C 5780.254 4586.028 5770.503 4581.849 5710.603 4581.849 L 5640.952 4581.849 L 5638.166 4328.319 C 5636.773 4187.624 5635.38 3812.901 5632.593 3495.292 C 5631.2 3177.684 5629.807 2906.044 5628.414 2893.507 C 5627.021 2871.219 5610.305 2868.433 5494.684 2868.433 L 5362.347 2868.433 L 5362.347 2921.368 C 5362.347 2949.228 5344.238 3314.2 5320.557 3732.106 C 5287.124 4360.359 5249.513 5133.485 5232.796 5519.352 C 5230.01 5587.61 5234.189 5598.754 5255.085 5598.754 C 5269.015 5598.754 5285.731 5614.078 5292.696 5634.973 C 5312.199 5685.122 5310.806 5692.087 5275.98 5700.445 C 5246.727 5708.803 5246.727 5710.196 5270.408 5736.664 C 5295.482 5764.524 5295.482 5765.917 5259.264 5778.454 C 5231.403 5789.598 5223.045 5802.136 5223.045 5834.175 C 5223.045 5869.001 5234.189 5881.538 5299.661 5919.149 C 5387.422 5969.298 5445.929 6034.77 5497.47 6139.247 C 5528.117 6201.933 5532.296 6225.614 5526.724 6299.444 C 5522.545 6349.593 5505.829 6413.672 5487.719 6448.497 C 5451.501 6520.935 5372.098 6608.695 5317.771 6637.948 C 5270.408 6663.023 5269.015 6679.739 5312.199 6690.883 C 5341.452 6697.848 5347.024 6710.385 5355.382 6781.429 C 5366.526 6877.548 5352.596 7005.706 5324.736 7078.143 C 5308.02 7119.934 5292.696 7133.864 5250.906 7146.401 C 5193.792 7164.51 5189.613 7188.192 5241.154 7211.873 C 5271.801 7225.803 5271.801 7225.803 5232.796 7241.126 C 5193.792 7256.45 5046.132 7259.236 4997.376 7246.699 Z M 4944.441 7040.531 C 4944.441 7029.387 4934.69 7019.636 4923.546 7019.636 C 4912.401 7019.636 4902.65 7029.387 4902.65 7040.531 C 4902.65 7051.676 4912.401 7061.427 4923.546 7061.427 C 4934.69 7061.427 4944.441 7051.676 4944.441 7040.531 Z M 5317.771 7007.099 C 5320.557 6976.452 5314.985 6963.915 5299.661 6963.915 C 5288.517 6963.915 5278.766 6970.88 5278.766 6977.845 C 5278.766 6986.204 5285.731 6991.776 5292.696 6991.776 C 5301.054 6991.776 5306.626 6998.741 5306.626 7007.099 C 5306.626 7014.064 5301.054 7016.85 5292.696 7012.671 C 5277.373 7002.92 5273.194 7037.745 5287.124 7051.676 C 5303.84 7066.999 5314.985 7050.283 5317.771 7007.099 Z M 4926.332 6970.88 C 4926.332 6959.736 4920.76 6949.985 4913.795 6949.985 C 4908.222 6949.985 4902.65 6959.736 4902.65 6970.88 C 4902.65 6982.025 4908.222 6991.776 4913.795 6991.776 C 4920.76 6991.776 4926.332 6982.025 4926.332 6970.88 Z M 5331.701 6877.548 C 5334.487 6770.285 5319.164 6710.385 5292.696 6727.102 C 5274.587 6739.639 5274.587 6742.425 5292.696 6754.962 C 5306.626 6763.32 5308.02 6768.892 5296.875 6768.892 C 5269.015 6768.892 5275.98 6796.753 5303.84 6798.146 C 5323.343 6798.146 5323.343 6800.932 5299.661 6810.683 C 5281.552 6819.041 5278.766 6823.22 5292.696 6823.22 C 5310.806 6824.613 5310.806 6826.006 5292.696 6838.543 C 5274.587 6851.081 5274.587 6855.26 5296.875 6871.976 C 5313.592 6884.513 5316.378 6894.264 5308.02 6901.229 C 5285.731 6913.766 5288.517 6949.985 5310.806 6949.985 C 5323.343 6949.985 5330.308 6927.697 5331.701 6877.548 Z M 4930.511 6922.125 C 4930.511 6915.16 4924.939 6908.194 4916.581 6908.194 C 4909.615 6908.194 4902.65 6915.16 4902.65 6922.125 C 4902.65 6930.483 4909.615 6936.055 4916.581 6936.055 C 4924.939 6936.055 4930.511 6930.483 4930.511 6922.125 Z M 4944.441 6871.976 C 4944.441 6869.19 4934.69 6866.404 4923.546 6866.404 C 4912.401 6866.404 4902.65 6871.976 4902.65 6880.334 C 4902.65 6887.299 4912.401 6890.085 4923.546 6885.906 C 4934.69 6880.334 4944.441 6874.762 4944.441 6871.976 Z M 4930.511 6846.901 C 4930.511 6842.722 4924.939 6835.757 4916.581 6831.578 C 4909.615 6827.399 4902.65 6830.185 4902.65 6837.15 C 4902.65 6845.508 4909.615 6852.474 4916.581 6852.474 C 4924.939 6852.474 4930.511 6849.688 4930.511 6846.901 Z M 4927.725 6775.857 C 4929.118 6756.355 4924.939 6741.032 4919.367 6741.032 C 4913.795 6741.032 4906.829 6756.355 4905.436 6775.857 C 4904.043 6795.36 4908.222 6810.683 4913.795 6810.683 C 4919.367 6810.683 4926.332 6795.36 4927.725 6775.857 Z M 4324.547 4609.709 C 4320.367 4602.744 4310.616 4595.779 4302.258 4595.779 C 4295.293 4595.779 4289.721 4602.744 4289.721 4609.709 C 4289.721 4618.068 4299.472 4623.64 4312.009 4623.64 C 4323.154 4623.64 4328.726 4618.068 4324.547 4609.709 Z M 4452.704 4579.063 C 4448.525 4567.919 4444.346 4572.098 4444.346 4587.421 C 4442.953 4602.744 4447.132 4611.102 4451.311 4605.53 C 4455.491 4601.351 4456.884 4588.814 4452.704 4579.063 Z M 4192.21 4435.582 C 4192.21 4410.507 4185.244 4400.756 4164.349 4400.756 C 4136.489 4400.756 4125.344 4439.761 4146.24 4460.656 C 4167.135 4482.944 4192.21 4469.014 4192.21 4435.582 Z M 4342.656 4432.796 C 4346.835 4409.114 4339.87 4403.542 4318.974 4404.935 C 4298.079 4406.328 4289.721 4416.079 4289.721 4439.761 C 4289.721 4482.944 4337.084 4475.979 4342.656 4432.796 Z M 4498.674 4427.224 C 4498.674 4410.507 4488.923 4400.756 4472.207 4400.756 C 4454.098 4400.756 4447.132 4409.114 4449.918 4425.831 C 4452.704 4438.368 4455.491 4453.691 4455.491 4459.263 C 4458.277 4481.551 4498.674 4450.905 4498.674 4427.224 Z M 4052.907 4289.315 C 4052.907 4271.205 4043.156 4261.454 4025.047 4261.454 C 3994.401 4261.454 3986.042 4296.28 4015.296 4307.424 C 4045.942 4321.354 4052.907 4317.175 4052.907 4289.315 Z M 4192.21 4290.708 C 4192.21 4276.777 4182.458 4260.061 4169.921 4255.882 C 4137.882 4243.345 4136.489 4244.738 4136.489 4282.349 C 4136.489 4307.424 4143.454 4317.175 4164.349 4317.175 C 4182.458 4317.175 4192.21 4307.424 4192.21 4290.708 Z M 4359.372 4292.101 C 4359.372 4257.275 4349.621 4248.917 4316.188 4257.275 C 4275.791 4268.419 4281.363 4317.175 4324.547 4317.175 C 4349.621 4317.175 4359.372 4310.21 4359.372 4292.101 Z M 5869.407 4211.305 C 5873.586 4198.768 5877.765 4148.619 5877.765 4099.864 L 5877.765 4009.317 L 5812.293 4013.496 L 5745.428 4017.675 L 5748.214 4115.187 C 5749.607 4169.515 5751 4216.877 5752.393 4223.843 C 5752.393 4229.415 5777.468 4233.594 5806.721 4233.594 C 5842.94 4233.594 5863.835 4226.629 5869.407 4211.305 Z M 6067.216 4216.877 C 6072.788 4207.126 6071.395 4205.733 6061.644 4211.305 C 6051.893 4216.877 6044.928 4214.091 6044.928 4207.126 C 6044.928 4198.768 6051.893 4191.803 6058.858 4191.803 C 6074.181 4191.803 6078.36 4069.217 6064.43 4032.999 C 6058.858 4017.675 6037.963 4010.71 5994.779 4010.71 L 5933.486 4010.71 L 5933.486 4122.152 L 5933.486 4233.594 L 5994.779 4233.594 C 6029.605 4233.594 6061.644 4226.629 6067.216 4216.877 Z M 6276.169 4184.838 C 6280.348 4161.157 6281.741 4113.794 6278.955 4080.361 L 6274.776 4017.675 L 6209.304 4013.496 L 6142.439 4009.317 L 6142.439 4122.152 L 6142.439 4234.987 L 6205.125 4230.808 C 6262.239 4226.629 6267.811 4223.843 6276.169 4184.838 Z M 6462.834 4122.152 L 6462.834 4010.71 L 6400.148 4010.71 L 6337.462 4010.71 L 6337.462 4122.152 L 6337.462 4233.594 L 6400.148 4233.594 L 6462.834 4233.594 L 6462.834 4122.152 Z M 2976.102 4154.191 C 2971.923 4140.261 2969.137 4148.619 2969.137 4170.908 C 2969.137 4194.589 2971.923 4204.34 2976.102 4195.982 C 2978.888 4186.231 2978.888 4166.729 2976.102 4154.191 Z M 3185.055 4161.157 C 3180.876 4151.405 3178.09 4158.371 3178.09 4177.873 C 3178.09 4197.375 3180.876 4204.34 3185.055 4195.982 C 3187.841 4186.231 3187.841 4169.515 3185.055 4161.157 Z M 3366.148 4161.157 C 3361.969 4151.405 3359.183 4158.371 3359.183 4177.873 C 3359.183 4197.375 3361.969 4204.34 3366.148 4195.982 C 3368.934 4186.231 3368.934 4169.515 3366.148 4161.157 Z M 3069.434 4169.515 C 3073.613 4158.371 3072.22 4152.798 3063.862 4156.977 C 3055.504 4161.157 3049.932 4170.908 3049.932 4179.266 C 3049.932 4198.768 3059.683 4194.589 3069.434 4169.515 Z M 3143.265 4161.157 C 3139.085 4150.012 3134.906 4154.191 3134.906 4169.515 C 3133.513 4184.838 3137.692 4193.196 3141.872 4187.624 C 3146.051 4183.445 3147.444 4170.908 3143.265 4161.157 Z M 3335.501 4179.266 C 3339.681 4172.301 3336.894 4162.55 3328.536 4156.977 C 3321.571 4152.798 3314.606 4158.371 3314.606 4169.515 C 3314.606 4194.589 3322.964 4198.768 3335.501 4179.266 Z M 3031.823 4147.226 C 3027.644 4136.082 3023.465 4140.261 3023.465 4155.584 C 3022.072 4170.908 3026.251 4179.266 3030.43 4173.694 C 3034.609 4169.515 3036.002 4156.977 3031.823 4147.226 Z M 4036.191 4140.261 C 4030.619 4085.933 3997.187 4081.754 3997.187 4134.689 C 3997.187 4163.943 4004.152 4177.873 4019.475 4177.873 C 4034.798 4177.873 4038.977 4166.729 4036.191 4140.261 Z M 4183.851 4155.584 C 4199.175 4115.187 4192.21 4094.292 4164.349 4094.292 C 4149.026 4094.292 4136.489 4102.65 4136.489 4113.794 C 4136.489 4143.047 4151.812 4177.873 4164.349 4177.873 C 4169.921 4177.873 4179.672 4168.122 4183.851 4155.584 Z M 4324.547 4163.943 C 4320.367 4156.977 4323.154 4150.012 4330.119 4150.012 C 4338.477 4150.012 4345.442 4137.475 4345.442 4122.152 C 4345.442 4104.043 4335.691 4094.292 4320.367 4094.292 C 4300.865 4094.292 4293.9 4105.436 4293.9 4136.082 C 4293.9 4162.55 4300.865 4177.873 4313.402 4177.873 C 4324.547 4177.873 4328.726 4172.301 4324.547 4163.943 Z M 4481.958 4131.903 C 4484.744 4105.436 4480.565 4094.292 4465.242 4094.292 C 4449.918 4094.292 4442.953 4108.222 4442.953 4137.475 C 4442.953 4190.41 4476.386 4186.231 4481.958 4131.903 Z M 2952.421 4150.012 C 2952.421 4143.047 2946.849 4136.082 2938.49 4136.082 C 2931.525 4136.082 2924.56 4143.047 2924.56 4150.012 C 2924.56 4158.371 2931.525 4163.943 2938.49 4163.943 C 2946.849 4163.943 2952.421 4158.371 2952.421 4150.012 Z M 2976.102 4063.645 C 2971.923 4052.501 2967.744 4056.68 2967.744 4072.003 C 2966.351 4087.326 2970.53 4095.685 2974.709 4090.112 C 2978.888 4085.933 2980.281 4073.396 2976.102 4063.645 Z M 3366.148 4063.645 C 3361.969 4052.501 3357.79 4056.68 3357.79 4072.003 C 3356.397 4087.326 3360.576 4095.685 3364.755 4090.112 C 3368.934 4085.933 3370.327 4073.396 3366.148 4063.645 Z M 4189.423 3985.636 C 4193.603 3961.955 4186.637 3954.989 4165.742 3954.989 C 4146.24 3954.989 4136.489 3963.348 4136.489 3980.064 C 4136.489 4032.999 4182.458 4037.178 4189.423 3985.636 Z M 4342.656 3985.636 C 4346.835 3961.955 4339.87 3954.989 4318.974 3954.989 C 4299.472 3954.989 4289.721 3963.348 4289.721 3980.064 C 4289.721 4032.999 4335.691 4037.178 4342.656 3985.636 Z M 4034.798 3982.85 C 4033.405 3967.527 4027.833 3954.989 4022.261 3954.989 C 4016.689 3954.989 4011.117 3967.527 4011.117 3982.85 C 4011.117 3998.173 4016.689 4010.71 4023.654 4010.71 C 4032.012 4010.71 4036.191 3998.173 4034.798 3982.85 Z M 4463.849 3982.85 C 4459.67 3975.885 4468.028 3967.527 4480.565 3964.741 C 4500.067 3959.168 4498.674 3957.775 4474.993 3956.382 C 4451.311 3954.989 4442.953 3963.348 4442.953 3984.243 C 4442.953 3999.566 4449.918 4007.924 4456.884 4003.745 C 4465.242 3998.173 4468.028 3989.815 4463.849 3982.85 Z M 2976.102 3952.203 C 2971.923 3941.059 2967.744 3945.238 2967.744 3960.561 C 2966.351 3975.885 2970.53 3984.243 2974.709 3978.671 C 2978.888 3974.492 2980.281 3961.955 2976.102 3952.203 Z M 3342.467 3961.955 C 3342.467 3950.81 3336.894 3941.059 3328.536 3941.059 C 3321.571 3941.059 3314.606 3950.81 3314.606 3961.955 C 3314.606 3973.099 3321.571 3982.85 3328.536 3982.85 C 3336.894 3982.85 3342.467 3973.099 3342.467 3961.955 Z M 3366.148 3952.203 C 3361.969 3941.059 3357.79 3945.238 3357.79 3960.561 C 3356.397 3975.885 3360.576 3984.243 3364.755 3978.671 C 3368.934 3974.492 3370.327 3961.955 3366.148 3952.203 Z M 5863.835 3899.269 C 5863.835 3875.587 5854.084 3871.408 5808.114 3871.408 C 5762.144 3871.408 5752.393 3875.587 5752.393 3899.269 C 5752.393 3922.95 5762.144 3927.129 5808.114 3927.129 C 5854.084 3927.129 5863.835 3922.95 5863.835 3899.269 Z M 6070.002 3903.448 C 6067.216 3883.945 6049.107 3876.98 5993.386 3874.194 C 5926.521 3870.015 5922.342 3872.801 5929.307 3899.269 C 5934.879 3922.95 5947.416 3927.129 6005.923 3927.129 C 6064.43 3927.129 6074.181 3922.95 6070.002 3903.448 Z M 6267.811 3899.269 C 6267.811 3875.587 6258.06 3871.408 6198.16 3871.408 C 6138.26 3871.408 6128.509 3875.587 6128.509 3899.269 C 6128.509 3922.95 6138.26 3927.129 6198.16 3927.129 C 6258.06 3927.129 6267.811 3922.95 6267.811 3899.269 Z M 6460.048 3903.448 C 6457.262 3885.338 6439.153 3876.98 6395.969 3874.194 C 6344.427 3870.015 6337.462 3872.801 6337.462 3897.876 C 6337.462 3922.95 6345.82 3927.129 6401.541 3927.129 C 6454.476 3927.129 6464.227 3922.95 6460.048 3903.448 Z M 3334.108 3892.303 C 3338.288 3881.159 3335.501 3871.408 3328.536 3871.408 C 3320.178 3871.408 3314.606 3881.159 3314.606 3892.303 C 3314.606 3903.448 3317.392 3913.199 3320.178 3913.199 C 3322.964 3913.199 3328.536 3903.448 3334.108 3892.303 Z M 3366.148 3882.552 C 3361.969 3871.408 3357.79 3875.587 3357.79 3890.91 C 3356.397 3906.234 3360.576 3914.592 3364.755 3909.02 C 3368.934 3904.841 3370.327 3892.303 3366.148 3882.552 Z M 2952.421 3885.338 C 2952.421 3878.373 2946.849 3871.408 2938.49 3871.408 C 2931.525 3871.408 2924.56 3878.373 2924.56 3885.338 C 2924.56 3893.696 2931.525 3899.269 2938.49 3899.269 C 2946.849 3899.269 2952.421 3893.696 2952.421 3885.338 Z M 4052.907 3836.583 C 4052.907 3808.722 4029.226 3797.578 4002.759 3812.901 C 3983.256 3824.045 3983.256 3826.831 4004.152 3847.727 C 4029.226 3872.801 4052.907 3867.229 4052.907 3836.583 Z M 4189.423 3832.404 C 4193.603 3808.722 4186.637 3801.757 4165.742 3801.757 C 4143.454 3801.757 4136.489 3810.115 4136.489 3837.976 C 4136.489 3883.945 4182.458 3879.766 4189.423 3832.404 Z M 4349.621 3854.692 C 4359.372 3825.438 4344.049 3801.757 4316.188 3801.757 C 4296.686 3801.757 4289.721 3811.508 4289.721 3836.583 C 4289.721 3861.657 4296.686 3871.408 4316.188 3871.408 C 4331.512 3871.408 4345.442 3863.05 4349.621 3854.692 Z M 4494.495 3822.652 C 4483.351 3796.185 4429.023 3794.792 4429.023 3821.259 C 4429.023 3833.797 4438.774 3837.976 4456.884 3833.797 C 4473.6 3829.618 4484.744 3833.797 4484.744 3844.941 C 4484.744 3854.692 4488.923 3858.871 4493.102 3853.299 C 4498.674 3849.12 4498.674 3835.19 4494.495 3822.652 Z M 5877.765 3729.32 L 5877.765 3648.525 L 5808.114 3648.525 L 5738.463 3648.525 L 5738.463 3709.818 C 5738.463 3804.543 5745.428 3814.294 5816.472 3811.508 L 5877.765 3808.722 L 5877.765 3729.32 Z M 6259.453 3804.543 C 6270.597 3786.434 6281.741 3676.385 6273.383 3658.276 C 6269.204 3647.132 6245.523 3642.953 6205.125 3645.739 L 6142.439 3651.311 L 6142.439 3733.499 L 6142.439 3815.687 L 6196.767 3815.687 C 6227.414 3815.687 6255.274 3810.115 6259.453 3804.543 Z M 6462.834 3732.106 L 6462.834 3648.525 L 6400.148 3648.525 L 6337.462 3648.525 L 6337.462 3732.106 L 6337.462 3815.687 L 6400.148 3815.687 L 6462.834 3815.687 L 6462.834 3732.106 Z M 6072.788 3725.141 L 6072.788 3648.525 L 6003.137 3648.525 L 5933.486 3648.525 L 5933.486 3725.141 L 5933.486 3801.757 L 6003.137 3801.757 L 6072.788 3801.757 L 6072.788 3725.141 Z M 6900.243 3780.862 C 6904.422 3769.718 6901.636 3759.966 6894.671 3759.966 C 6886.313 3759.966 6880.74 3769.718 6880.74 3780.862 C 6880.74 3792.006 6883.527 3801.757 6886.313 3801.757 C 6889.099 3801.757 6894.671 3792.006 6900.243 3780.862 Z M 2952.421 3773.897 C 2952.421 3766.932 2949.635 3759.966 2946.849 3759.966 C 2942.669 3759.966 2935.704 3766.932 2931.525 3773.897 C 2927.346 3782.255 2930.132 3787.827 2937.097 3787.827 C 2945.456 3787.827 2952.421 3782.255 2952.421 3773.897 Z M 7809.886 3736.285 C 7805.707 3722.355 7802.921 3730.713 7802.921 3753.001 C 7802.921 3776.683 7805.707 3786.434 7809.886 3778.076 C 7812.672 3768.325 7812.672 3748.822 7809.886 3736.285 Z M 4192.21 3666.634 C 4192.21 3656.883 4179.672 3648.525 4164.349 3648.525 C 4133.703 3648.525 4132.31 3652.704 4146.24 3702.853 C 4154.598 3734.892 4155.991 3734.892 4174.1 3711.211 C 4183.851 3695.887 4192.21 3676.385 4192.21 3666.634 Z M 4038.977 3683.35 C 4038.977 3661.062 4030.619 3648.525 4018.082 3648.525 C 3993.007 3648.525 3990.221 3677.778 4013.903 3701.46 C 4037.584 3725.141 4038.977 3723.748 4038.977 3683.35 Z M 4331.512 3691.708 C 4351.014 3654.097 4349.621 3648.525 4317.581 3648.525 C 4296.686 3648.525 4289.721 3658.276 4289.721 3683.35 C 4289.721 3725.141 4310.616 3729.32 4331.512 3691.708 Z M 4484.744 3683.35 C 4484.744 3661.062 4476.386 3648.525 4463.849 3648.525 C 4451.311 3648.525 4442.953 3661.062 4442.953 3683.35 C 4442.953 3705.639 4451.311 3718.176 4463.849 3718.176 C 4476.386 3718.176 4484.744 3705.639 4484.744 3683.35 Z M 7196.956 3695.887 C 7192.777 3691.708 7180.24 3690.315 7170.489 3694.494 C 7159.345 3698.674 7163.524 3702.853 7178.847 3702.853 C 7194.17 3704.246 7202.528 3700.067 7196.956 3695.887 Z M 7954.76 3596.983 C 7942.223 3574.695 7940.83 3577.481 7939.437 3613.699 C 7939.437 3642.953 7943.616 3649.918 7954.76 3638.774 C 7965.904 3627.629 7965.904 3616.485 7954.76 3596.983 Z M 2948.242 3569.123 C 2944.062 3555.192 2941.276 3566.336 2941.276 3592.804 C 2941.276 3619.271 2944.062 3630.415 2948.242 3617.878 C 2951.028 3603.948 2951.028 3581.66 2948.242 3569.123 Z M 2976.102 3583.053 C 2971.923 3569.123 2969.137 3577.481 2969.137 3599.769 C 2969.137 3623.45 2971.923 3633.202 2976.102 3624.843 C 2978.888 3615.092 2978.888 3595.59 2976.102 3583.053 Z M 7904.611 3620.664 C 7908.79 3613.699 7906.004 3606.734 7899.039 3606.734 C 7890.681 3606.734 7883.716 3613.699 7883.716 3620.664 C 7883.716 3629.022 7886.502 3634.595 7889.288 3634.595 C 7893.467 3634.595 7900.432 3629.022 7904.611 3620.664 Z M 8036.948 3606.734 C 8036.948 3591.411 8034.162 3578.874 8031.376 3578.874 C 8028.59 3578.874 8023.018 3591.411 8018.839 3606.734 C 8014.66 3622.057 8017.446 3634.595 8024.411 3634.595 C 8031.376 3634.595 8036.948 3622.057 8036.948 3606.734 Z M 8088.49 3603.948 C 8084.311 3592.804 8080.132 3596.983 8080.132 3612.306 C 8078.739 3627.629 8082.918 3635.988 8087.097 3630.415 C 8091.276 3626.236 8092.669 3613.699 8088.49 3603.948 Z M 3296.497 3562.157 C 3292.318 3552.406 3289.532 3559.371 3289.532 3578.874 C 3289.532 3598.376 3292.318 3605.341 3296.497 3596.983 C 3299.283 3587.232 3299.283 3570.516 3296.497 3562.157 Z M 3332.715 3578.874 C 3336.894 3563.55 3334.108 3551.013 3327.143 3551.013 C 3320.178 3551.013 3314.606 3563.55 3314.606 3578.874 C 3314.606 3594.197 3317.392 3606.734 3320.178 3606.734 C 3322.964 3606.734 3328.536 3594.197 3332.715 3578.874 Z M 3366.148 3562.157 C 3361.969 3552.406 3359.183 3559.371 3359.183 3578.874 C 3359.183 3598.376 3361.969 3605.341 3366.148 3596.983 C 3368.934 3587.232 3368.934 3570.516 3366.148 3562.157 Z M 7194.17 3592.804 C 7189.991 3585.839 7180.24 3578.874 7171.882 3578.874 C 7164.917 3578.874 7159.345 3585.839 7159.345 3592.804 C 7159.345 3601.162 7169.096 3606.734 7181.633 3606.734 C 7192.777 3606.734 7198.349 3601.162 7194.17 3592.804 Z M 7354.368 3592.804 C 7354.368 3585.839 7348.796 3578.874 7341.831 3578.874 C 7333.472 3578.874 7323.721 3585.839 7319.542 3592.804 C 7315.363 3601.162 7320.935 3606.734 7332.079 3606.734 C 7344.617 3606.734 7354.368 3601.162 7354.368 3592.804 Z M 2247.552 3556.585 C 2253.124 3535.69 2253.124 3502.258 2248.945 3479.969 C 2241.98 3449.323 2232.229 3439.572 2205.761 3439.572 C 2175.115 3439.572 2172.329 3443.751 2172.329 3516.188 C 2172.329 3587.232 2175.115 3592.804 2205.761 3592.804 C 2229.443 3592.804 2241.98 3583.053 2247.552 3556.585 Z M 4189.423 3534.297 C 4186.637 3516.188 4175.493 3502.258 4164.349 3502.258 C 4153.205 3502.258 4142.061 3516.188 4139.275 3534.297 C 4135.096 3557.978 4142.061 3564.943 4164.349 3564.943 C 4186.637 3564.943 4193.603 3557.978 4189.423 3534.297 Z M 4345.442 3537.083 C 4345.442 3518.974 4335.691 3509.223 4317.581 3509.223 C 4299.472 3509.223 4289.721 3518.974 4289.721 3537.083 C 4289.721 3555.192 4299.472 3564.943 4317.581 3564.943 C 4335.691 3564.943 4345.442 3555.192 4345.442 3537.083 Z M 4469.421 3539.869 C 4479.172 3520.367 4477.779 3513.402 4463.849 3513.402 C 4454.098 3513.402 4445.739 3525.939 4447.132 3539.869 C 4448.525 3553.799 4449.918 3564.943 4452.704 3564.943 C 4454.098 3564.943 4462.456 3553.799 4469.421 3539.869 Z M 5863.835 3544.048 C 5863.835 3528.725 5848.512 3523.153 5808.114 3523.153 C 5767.717 3523.153 5752.393 3528.725 5752.393 3544.048 C 5752.393 3559.371 5767.717 3564.943 5808.114 3564.943 C 5848.512 3564.943 5863.835 3559.371 5863.835 3544.048 Z M 6072.788 3552.406 C 6072.788 3534.297 6035.177 3523.153 5973.884 3523.153 C 5922.342 3523.153 5907.019 3534.297 5929.307 3555.192 C 5943.237 3569.123 6072.788 3566.336 6072.788 3552.406 Z M 6267.811 3544.048 C 6267.811 3528.725 6251.095 3523.153 6198.16 3523.153 C 6145.225 3523.153 6128.509 3528.725 6128.509 3544.048 C 6128.509 3559.371 6145.225 3564.943 6198.16 3564.943 C 6251.095 3564.943 6267.811 3559.371 6267.811 3544.048 Z M 6462.834 3544.048 C 6462.834 3528.725 6446.118 3523.153 6393.183 3523.153 C 6340.248 3523.153 6323.532 3528.725 6323.532 3544.048 C 6323.532 3559.371 6340.248 3564.943 6393.183 3564.943 C 6446.118 3564.943 6462.834 3559.371 6462.834 3544.048 Z M 2423.073 3474.397 C 2423.073 3428.427 2417.5 3411.711 2402.177 3411.711 C 2386.854 3411.711 2381.282 3428.427 2381.282 3474.397 C 2381.282 3520.367 2386.854 3537.083 2402.177 3537.083 C 2417.5 3537.083 2423.073 3520.367 2423.073 3474.397 Z M 2693.319 3514.795 C 2697.498 3502.258 2701.677 3477.183 2701.677 3459.074 C 2701.677 3432.606 2694.712 3425.641 2668.244 3425.641 C 2640.384 3425.641 2636.205 3431.213 2641.777 3464.646 C 2654.314 3541.262 2675.209 3562.157 2693.319 3514.795 Z M 2505.261 3450.716 C 2506.654 3436.786 2501.082 3425.641 2492.724 3425.641 C 2485.759 3425.641 2478.793 3449.323 2480.186 3478.576 C 2480.186 3520.367 2482.972 3524.546 2492.724 3502.258 C 2499.689 3486.934 2505.261 3463.253 2505.261 3450.716 Z M 2570.733 3428.427 C 2555.41 3414.497 2551.231 3432.606 2560.982 3481.362 L 2569.34 3530.118 L 2573.519 3484.148 C 2576.305 3457.681 2574.912 3433.999 2570.733 3428.427 Z M 4038.977 3509.223 C 4038.977 3502.258 4032.012 3495.292 4023.654 3495.292 C 4016.689 3495.292 4013.903 3502.258 4018.082 3509.223 C 4022.261 3517.581 4029.226 3523.153 4033.405 3523.153 C 4036.191 3523.153 4038.977 3517.581 4038.977 3509.223 Z M 7194.17 3495.292 C 7198.349 3488.327 7192.777 3481.362 7181.633 3481.362 C 7169.096 3481.362 7159.345 3488.327 7159.345 3495.292 C 7159.345 3503.651 7164.917 3509.223 7171.882 3509.223 C 7180.24 3509.223 7189.991 3503.651 7194.17 3495.292 Z M 2976.102 3464.646 C 2971.923 3453.502 2967.744 3457.681 2967.744 3473.004 C 2966.351 3488.327 2970.53 3496.685 2974.709 3491.113 C 2978.888 3486.934 2980.281 3474.397 2976.102 3464.646 Z M 3336.894 3460.467 C 3338.288 3449.323 3334.108 3442.358 3327.143 3447.93 C 3320.178 3452.109 3314.606 3464.646 3314.606 3477.183 C 3314.606 3503.651 3332.715 3489.72 3336.894 3460.467 Z M 3366.148 3450.716 C 3361.969 3440.965 3359.183 3447.93 3359.183 3467.432 C 3359.183 3486.934 3361.969 3493.899 3366.148 3485.541 C 3368.934 3475.79 3368.934 3459.074 3366.148 3450.716 Z M 7354.368 3481.362 C 7354.368 3474.397 7344.617 3467.432 7333.472 3467.432 C 7322.328 3467.432 7312.577 3474.397 7312.577 3481.362 C 7312.577 3489.72 7322.328 3495.292 7333.472 3495.292 C 7344.617 3495.292 7354.368 3489.72 7354.368 3481.362 Z M 5771.896 3450.716 C 5763.537 3438.179 5767.717 3438.179 5784.433 3452.109 C 5798.363 3463.253 5822.044 3467.432 5842.94 3461.86 C 5874.979 3453.502 5877.765 3447.93 5877.765 3364.348 C 5877.765 3301.662 5872.193 3273.802 5858.263 3268.23 C 5840.154 3261.265 5751 3269.623 5741.249 3279.374 C 5731.498 3289.125 5757.965 3467.432 5769.11 3467.432 C 5776.075 3467.432 5777.468 3459.074 5771.896 3450.716 Z M 6070.002 3367.134 C 6074.181 3265.444 6076.967 3269.623 5996.172 3269.623 C 5976.67 3269.623 5955.774 3269.623 5947.416 3271.016 C 5939.058 3271.016 5933.486 3314.2 5933.486 3367.134 L 5933.486 3460.467 L 6000.351 3460.467 L 6065.823 3460.467 L 6070.002 3367.134 Z M 6281.741 3362.955 C 6281.741 3301.662 6276.169 3272.409 6265.025 3269.623 C 6202.339 3262.658 6161.942 3264.051 6149.404 3272.409 C 6142.439 3279.374 6138.26 3322.558 6139.653 3368.527 L 6145.225 3453.502 L 6213.483 3453.502 L 6281.741 3453.502 L 6281.741 3362.955 Z M 6460.048 3360.169 L 6455.869 3265.444 L 6397.362 3261.265 L 6337.462 3257.086 L 6337.462 3354.597 L 6337.462 3453.502 L 6400.148 3453.502 L 6464.227 3453.502 L 6460.048 3360.169 Z M 4192.21 3382.458 C 4192.21 3365.741 4182.458 3355.99 4164.349 3355.99 C 4135.096 3355.99 4130.917 3367.134 4144.847 3403.353 C 4155.991 3431.213 4192.21 3415.89 4192.21 3382.458 Z M 4345.442 3376.886 C 4345.442 3351.811 4339.87 3346.239 4317.581 3351.811 C 4286.935 3360.169 4279.97 3406.139 4307.83 3415.89 C 4334.298 3425.641 4345.442 3413.104 4345.442 3376.886 Z M 4052.907 3382.458 C 4052.907 3347.632 4006.938 3351.811 3999.973 3388.03 C 3997.187 3404.746 4004.152 3411.711 4023.654 3411.711 C 4044.549 3411.711 4052.907 3403.353 4052.907 3382.458 Z M 3324.357 3367.134 C 3320.178 3355.99 3315.999 3360.169 3315.999 3375.493 C 3314.606 3390.816 3318.785 3399.174 3322.964 3393.602 C 3327.143 3389.423 3328.536 3376.886 3324.357 3367.134 Z M 3366.148 3367.134 C 3361.969 3355.99 3357.79 3360.169 3357.79 3375.493 C 3356.397 3390.816 3360.576 3399.174 3364.755 3393.602 C 3368.934 3389.423 3370.327 3376.886 3366.148 3367.134 Z M 4448.525 3375.493 C 4452.704 3364.348 4451.311 3358.776 4442.953 3362.955 C 4434.595 3367.134 4429.023 3376.886 4429.023 3385.244 C 4429.023 3404.746 4438.774 3400.567 4448.525 3375.493 Z M 4481.958 3362.955 C 4477.779 3358.776 4469.421 3365.741 4465.242 3379.672 C 4456.884 3399.174 4458.277 3400.567 4472.207 3388.03 C 4481.958 3378.279 4486.137 3367.134 4481.958 3362.955 Z M 7187.205 3376.886 C 7196.956 3364.348 7198.349 3355.99 7189.991 3355.99 C 7183.026 3355.99 7173.275 3365.741 7167.703 3376.886 C 7163.524 3388.03 7162.131 3397.781 7164.917 3397.781 C 7167.703 3397.781 7177.454 3388.03 7187.205 3376.886 Z M 7350.189 3376.886 C 7350.189 3365.741 7341.831 3355.99 7330.686 3355.99 C 7320.935 3355.99 7312.577 3365.741 7312.577 3376.886 C 7312.577 3388.03 7320.935 3397.781 7330.686 3397.781 C 7341.831 3397.781 7350.189 3388.03 7350.189 3376.886 Z M 2253.124 3304.449 C 2255.91 3271.016 2253.124 3244.549 2246.159 3244.549 C 2240.587 3244.549 2221.084 3240.37 2204.368 3236.19 C 2173.722 3227.832 2172.329 3232.011 2172.329 3298.876 C 2172.329 3369.92 2173.722 3371.314 2211.333 3367.134 C 2244.766 3362.955 2248.945 3357.383 2253.124 3304.449 Z M 6915.566 3355.99 C 6919.745 3349.025 6914.173 3342.06 6901.636 3342.06 C 6889.099 3342.06 6883.527 3349.025 6887.706 3355.99 C 6891.885 3364.348 6898.85 3369.92 6901.636 3369.92 C 6904.422 3369.92 6911.387 3364.348 6915.566 3355.99 Z M 2425.859 3286.339 C 2421.68 3250.121 2413.321 3230.618 2400.784 3230.618 C 2386.854 3230.618 2381.282 3247.335 2381.282 3286.339 C 2381.282 3330.916 2386.854 3342.06 2406.356 3342.06 C 2425.859 3342.06 2430.038 3332.309 2425.859 3286.339 Z M 2576.305 3308.628 C 2576.305 3290.518 2580.484 3265.444 2584.663 3252.907 C 2590.235 3237.583 2584.663 3230.618 2565.161 3230.618 C 2542.872 3230.618 2538.693 3238.977 2541.479 3283.553 C 2547.051 3346.239 2545.658 3342.06 2562.375 3342.06 C 2570.733 3342.06 2576.305 3326.737 2576.305 3308.628 Z M 2687.747 3318.379 C 2687.747 3304.449 2691.926 3279.374 2696.105 3262.658 C 2703.07 3236.19 2698.891 3230.618 2671.03 3230.618 C 2641.777 3230.618 2638.991 3234.797 2643.17 3286.339 C 2647.349 3322.558 2655.707 3342.06 2668.244 3342.06 C 2679.388 3342.06 2687.747 3330.916 2687.747 3318.379 Z M 2488.545 3255.693 C 2485.759 3237.583 2482.972 3248.728 2482.972 3279.374 C 2481.579 3310.021 2484.365 3323.951 2488.545 3311.414 C 2491.331 3297.483 2491.331 3272.409 2488.545 3255.693 Z M 7201.135 3271.016 C 7201.135 3264.051 7191.384 3258.479 7180.24 3258.479 C 7169.096 3258.479 7159.345 3268.23 7159.345 3279.374 C 7159.345 3291.911 7167.703 3296.09 7180.24 3291.911 C 7191.384 3286.339 7201.135 3277.981 7201.135 3271.016 Z M 6922.531 3272.409 C 6922.531 3265.444 6912.78 3258.479 6901.636 3258.479 C 6890.492 3258.479 6880.74 3265.444 6880.74 3272.409 C 6880.74 3280.767 6890.492 3286.339 6901.636 3286.339 C 6912.78 3286.339 6922.531 3280.767 6922.531 3272.409 Z M 7040.938 3272.409 C 7036.759 3265.444 7027.008 3258.479 7018.65 3258.479 C 7011.684 3258.479 7006.112 3265.444 7006.112 3272.409 C 7006.112 3280.767 7015.864 3286.339 7028.401 3286.339 C 7039.545 3286.339 7045.117 3280.767 7040.938 3272.409 Z M 7351.582 3269.623 C 7343.224 3244.549 7312.577 3240.37 7312.577 3264.051 C 7312.577 3276.588 7322.328 3286.339 7334.865 3286.339 C 7347.403 3286.339 7354.368 3279.374 7351.582 3269.623 Z M 4192.21 3237.583 C 4192.21 3212.509 4185.244 3202.758 4164.349 3202.758 C 4143.454 3202.758 4136.489 3212.509 4136.489 3237.583 C 4136.489 3262.658 4143.454 3272.409 4164.349 3272.409 C 4185.244 3272.409 4192.21 3262.658 4192.21 3237.583 Z M 4323.154 3264.051 C 4356.586 3251.514 4351.014 3202.758 4317.581 3202.758 C 4296.686 3202.758 4289.721 3212.509 4289.721 3237.583 C 4289.721 3275.195 4291.114 3276.588 4323.154 3264.051 Z M 4479.172 3244.549 C 4490.316 3244.549 4498.674 3234.797 4498.674 3223.653 C 4498.674 3211.116 4486.137 3202.758 4465.242 3202.758 C 4437.381 3202.758 4433.202 3208.33 4440.167 3241.763 C 4444.346 3262.658 4449.918 3271.016 4452.704 3262.658 C 4456.884 3252.907 4468.028 3244.549 4479.172 3244.549 Z M 3334.108 3237.583 C 3338.288 3226.439 3335.501 3216.688 3328.536 3216.688 C 3320.178 3216.688 3314.606 3226.439 3314.606 3237.583 C 3314.606 3248.728 3317.392 3258.479 3320.178 3258.479 C 3322.964 3258.479 3328.536 3248.728 3334.108 3237.583 Z M 3366.148 3227.832 C 3361.969 3216.688 3357.79 3220.867 3357.79 3236.19 C 3356.397 3251.514 3360.576 3259.872 3364.755 3254.3 C 3368.934 3250.121 3370.327 3237.583 3366.148 3227.832 Z M 7957.546 3230.618 C 7953.367 3215.295 7947.795 3202.758 7945.009 3202.758 C 7942.223 3202.758 7939.437 3215.295 7939.437 3230.618 C 7939.437 3245.942 7945.009 3258.479 7951.974 3258.479 C 7958.939 3258.479 7961.725 3245.942 7957.546 3230.618 Z M 2952.421 3230.618 C 2952.421 3223.653 2949.635 3216.688 2946.849 3216.688 C 2942.669 3216.688 2935.704 3223.653 2931.525 3230.618 C 2927.346 3238.977 2930.132 3244.549 2937.097 3244.549 C 2945.456 3244.549 2952.421 3238.977 2952.421 3230.618 Z M 8032.769 3193.007 C 8028.59 3179.077 8025.804 3187.435 8025.804 3209.723 C 8025.804 3233.404 8028.59 3243.156 8032.769 3234.797 C 8035.555 3225.046 8035.555 3205.544 8032.769 3193.007 Z M 8176.25 3234.797 C 8176.25 3227.832 8169.285 3213.902 8162.32 3202.758 C 8151.176 3186.042 8148.39 3187.435 8148.39 3213.902 C 8148.39 3230.618 8155.355 3244.549 8162.32 3244.549 C 8170.678 3244.549 8176.25 3240.37 8176.25 3234.797 Z M 4038.977 3216.688 C 4038.977 3209.723 4029.226 3202.758 4018.082 3202.758 C 4006.938 3202.758 3997.187 3209.723 3997.187 3216.688 C 3997.187 3225.046 4006.938 3230.618 4018.082 3230.618 C 4029.226 3230.618 4038.977 3225.046 4038.977 3216.688 Z M 6919.745 3172.111 C 6911.387 3147.037 6880.74 3142.858 6880.74 3166.539 C 6880.74 3179.077 6890.492 3188.828 6903.029 3188.828 C 6915.566 3188.828 6922.531 3181.863 6919.745 3172.111 Z M 7047.903 3174.898 C 7047.903 3167.932 7040.938 3160.967 7032.58 3160.967 C 7025.615 3160.967 7022.829 3167.932 7027.008 3174.898 C 7031.187 3183.256 7038.152 3188.828 7042.331 3188.828 C 7045.117 3188.828 7047.903 3183.256 7047.903 3174.898 Z M 7201.135 3174.898 C 7201.135 3167.932 7192.777 3160.967 7181.633 3160.967 C 7170.489 3160.967 7156.559 3167.932 7152.38 3174.898 C 7148.201 3183.256 7156.559 3188.828 7171.882 3188.828 C 7188.598 3188.828 7201.135 3183.256 7201.135 3174.898 Z M 7351.582 3172.111 C 7348.796 3163.753 7337.651 3154.002 7329.293 3152.609 C 7316.756 3149.823 7316.756 3151.216 7327.9 3156.788 C 7339.044 3162.36 7337.651 3167.932 7325.114 3176.291 C 7309.791 3186.042 7311.184 3188.828 7330.686 3188.828 C 7344.617 3188.828 7354.368 3181.863 7351.582 3172.111 Z M 2236.408 3160.967 C 2253.124 3160.967 2255.91 3147.037 2253.124 3102.46 C 2248.945 3048.133 2244.766 3042.561 2211.333 3038.381 C 2173.722 3034.202 2172.329 3035.595 2172.329 3105.246 C 2172.329 3165.146 2176.508 3176.291 2194.617 3169.325 C 2207.154 3165.146 2225.264 3160.967 2236.408 3160.967 Z M 2425.859 3091.316 C 2430.038 3045.347 2425.859 3035.595 2406.356 3035.595 C 2386.854 3035.595 2381.282 3046.74 2381.282 3091.316 C 2381.282 3130.321 2386.854 3147.037 2400.784 3147.037 C 2413.321 3147.037 2421.68 3127.535 2425.859 3091.316 Z M 2689.14 3137.286 C 2689.14 3130.321 2691.926 3105.246 2693.319 3081.565 C 2697.498 3041.167 2694.712 3035.595 2664.065 3035.595 C 2637.598 3035.595 2630.633 3041.167 2637.598 3057.884 C 2641.777 3070.421 2645.956 3095.495 2645.956 3113.605 C 2645.956 3134.5 2654.314 3147.037 2666.851 3147.037 C 2677.995 3147.037 2687.747 3142.858 2689.14 3137.286 Z M 2502.475 3102.46 C 2498.296 3091.316 2494.117 3095.495 2494.117 3110.819 C 2492.724 3126.142 2496.903 3134.5 2501.082 3128.928 C 2505.261 3124.749 2506.654 3112.212 2502.475 3102.46 Z M 2576.305 3084.351 C 2576.305 3057.884 2570.733 3035.595 2563.768 3035.595 C 2555.41 3035.595 2551.231 3057.884 2552.624 3084.351 C 2556.803 3148.43 2576.305 3148.43 2576.305 3084.351 Z M 4192.21 3084.351 C 4192.21 3059.277 4185.244 3049.526 4164.349 3049.526 C 4135.096 3049.526 4130.917 3060.67 4144.847 3096.888 C 4158.777 3131.714 4192.21 3123.356 4192.21 3084.351 Z M 4345.442 3084.351 C 4345.442 3059.277 4338.477 3049.526 4317.581 3049.526 C 4282.756 3049.526 4279.97 3101.067 4314.795 3109.426 C 4327.333 3113.605 4339.87 3116.391 4342.656 3117.784 C 4344.049 3117.784 4345.442 3103.853 4345.442 3084.351 Z M 4476.386 3096.888 C 4481.958 3082.958 4479.172 3078.779 4466.635 3085.744 C 4455.491 3092.709 4456.884 3088.53 4469.421 3073.207 C 4486.137 3052.312 4484.744 3049.526 4458.277 3049.526 C 4427.63 3049.526 4423.451 3059.277 4437.381 3096.888 C 4448.525 3124.749 4465.242 3124.749 4476.386 3096.888 Z M 2023.275 3032.809 C 2026.062 2992.412 2034.42 2945.049 2039.992 2928.333 C 2048.35 2901.865 2045.564 2896.293 2020.489 2896.293 C 1992.629 2896.293 1991.236 2903.258 1991.236 3000.77 C 1991.236 3120.57 2013.524 3141.465 2023.275 3032.809 Z M 4052.907 3060.67 C 4052.907 3053.705 4040.37 3049.526 4025.047 3049.526 C 3993.007 3049.526 3990.221 3057.884 4015.296 3082.958 C 4032.012 3101.067 4051.514 3088.53 4052.907 3060.67 Z M 7340.437 3063.456 C 7340.437 3056.491 7337.651 3049.526 7334.865 3049.526 C 7330.686 3049.526 7323.721 3056.491 7319.542 3063.456 C 7315.363 3071.814 7318.149 3077.386 7325.114 3077.386 C 7333.472 3077.386 7340.437 3071.814 7340.437 3063.456 Z M 3335.501 3035.595 C 3339.681 3028.63 3336.894 3021.665 3329.929 3021.665 C 3321.571 3021.665 3314.606 3028.63 3314.606 3035.595 C 3314.606 3043.954 3317.392 3049.526 3320.178 3049.526 C 3324.357 3049.526 3331.322 3043.954 3335.501 3035.595 Z M 1838.004 2963.158 C 1838.004 2926.94 1832.432 2910.223 1826.859 2921.368 C 1815.715 2938.084 1821.287 3021.665 1832.432 3021.665 C 1835.218 3021.665 1838.004 2995.198 1838.004 2963.158 Z M 6908.601 2979.875 C 6908.601 2964.551 6903.029 2952.014 6894.671 2952.014 C 6887.706 2952.014 6880.74 2964.551 6880.74 2979.875 C 6880.74 2995.198 6887.706 3007.735 6894.671 3007.735 C 6903.029 3007.735 6908.601 2995.198 6908.601 2979.875 Z M 5877.765 2935.298 L 5877.765 2882.363 L 5808.114 2882.363 C 5734.284 2882.363 5727.319 2890.721 5746.821 2961.765 C 5753.786 2986.84 5764.93 2991.019 5816.472 2989.626 L 5877.765 2988.233 L 5877.765 2935.298 Z M 6072.788 2938.084 L 6072.788 2882.363 L 6003.137 2882.363 L 5933.486 2882.363 L 5933.486 2938.084 L 5933.486 2993.805 L 6003.137 2993.805 L 6072.788 2993.805 L 6072.788 2938.084 Z M 6281.741 2938.084 L 6281.741 2882.363 L 6212.09 2882.363 L 6142.439 2882.363 L 6142.439 2938.084 L 6142.439 2993.805 L 6212.09 2993.805 L 6281.741 2993.805 L 6281.741 2938.084 Z M 6462.834 2938.084 L 6462.834 2882.363 L 6400.148 2882.363 L 6337.462 2882.363 L 6337.462 2938.084 L 6337.462 2993.805 L 6400.148 2993.805 L 6462.834 2993.805 L 6462.834 2938.084 Z M 7192.777 2972.909 C 7187.205 2961.765 7178.847 2956.193 7171.882 2960.372 C 7152.38 2971.516 7157.952 2993.805 7180.24 2993.805 C 7192.777 2993.805 7196.956 2985.447 7192.777 2972.909 Z M 7333.472 2979.875 C 7329.293 2972.909 7318.149 2965.944 7311.184 2965.944 C 7302.826 2965.944 7301.433 2972.909 7305.612 2979.875 C 7309.791 2988.233 7320.935 2993.805 7327.9 2993.805 C 7336.258 2993.805 7337.651 2988.233 7333.472 2979.875 Z M 2253.124 2928.333 C 2257.303 2885.149 2254.517 2882.363 2215.512 2882.363 C 2175.115 2882.363 2172.329 2886.542 2172.329 2932.512 C 2172.329 2978.482 2175.115 2981.268 2211.333 2977.089 C 2241.98 2974.302 2250.338 2965.944 2253.124 2928.333 Z M 3366.148 2949.228 C 3361.969 2938.084 3357.79 2942.263 3357.79 2957.586 C 3356.397 2972.909 3360.576 2981.268 3364.755 2975.695 C 3368.934 2971.516 3370.327 2958.979 3366.148 2949.228 Z M 2434.217 2931.119 C 2431.431 2907.437 2423.073 2896.293 2406.356 2896.293 C 2388.247 2896.293 2381.282 2907.437 2381.282 2931.119 C 2381.282 2956.193 2388.247 2965.944 2409.142 2965.944 C 2430.038 2965.944 2435.61 2957.586 2434.217 2931.119 Z M 2693.319 2943.656 C 2704.463 2915.796 2691.926 2896.293 2665.458 2896.293 C 2654.314 2896.293 2645.956 2910.223 2645.956 2931.119 C 2645.956 2970.123 2679.388 2978.482 2693.319 2943.656 Z M 2976.102 2935.298 C 2971.923 2924.154 2967.744 2928.333 2967.744 2943.656 C 2966.351 2958.979 2970.53 2967.337 2974.709 2961.765 C 2978.888 2957.586 2980.281 2945.049 2976.102 2935.298 Z M 3185.055 2935.298 C 3180.876 2924.154 3176.697 2928.333 3176.697 2943.656 C 3175.304 2958.979 3179.483 2967.337 3183.662 2961.765 C 3187.841 2957.586 3189.234 2945.049 3185.055 2935.298 Z M 3222.667 2943.656 C 3226.846 2932.512 3225.453 2926.94 3217.095 2931.119 C 3208.737 2935.298 3203.164 2945.049 3203.164 2953.407 C 3203.164 2972.909 3212.916 2968.73 3222.667 2943.656 Z M 3254.706 2935.298 C 3250.527 2924.154 3246.348 2928.333 3246.348 2943.656 C 3244.955 2958.979 3249.134 2967.337 3253.313 2961.765 C 3257.492 2957.586 3258.885 2945.049 3254.706 2935.298 Z M 3324.357 2935.298 C 3320.178 2924.154 3315.999 2928.333 3315.999 2943.656 C 3314.606 2958.979 3318.785 2967.337 3322.964 2961.765 C 3327.143 2957.586 3328.536 2945.049 3324.357 2935.298 Z M 4044.549 2935.298 C 4032.012 2893.507 4030.619 2892.114 4005.545 2900.472 C 3976.291 2911.617 3994.401 2965.944 4027.833 2965.944 C 4048.728 2965.944 4052.907 2960.372 4044.549 2935.298 Z M 4189.423 2935.298 C 4186.637 2917.189 4175.493 2903.258 4164.349 2903.258 C 4153.205 2903.258 4142.061 2917.189 4139.275 2935.298 C 4135.096 2958.979 4142.061 2965.944 4164.349 2965.944 C 4186.637 2965.944 4193.603 2958.979 4189.423 2935.298 Z M 4342.656 2933.905 C 4342.656 2913.01 4332.905 2901.865 4316.188 2900.472 C 4296.686 2899.079 4289.721 2907.437 4289.721 2932.512 C 4289.721 2956.193 4298.079 2965.944 4316.188 2965.944 C 4334.298 2965.944 4342.656 2956.193 4342.656 2933.905 Z M 4484.744 2952.014 C 4474.993 2946.442 4472.207 2933.905 4476.386 2925.547 C 4483.351 2915.796 4474.993 2910.223 4458.277 2910.223 C 4438.774 2910.223 4429.023 2918.582 4429.023 2936.691 C 4429.023 2954.8 4438.774 2963.158 4465.242 2963.158 C 4487.53 2963.158 4494.495 2958.979 4484.744 2952.014 Z M 2573.519 2928.333 C 2567.947 2897.686 2542.872 2900.472 2537.3 2929.726 C 2534.514 2943.656 2541.479 2952.014 2555.41 2952.014 C 2569.34 2952.014 2576.305 2942.263 2573.519 2928.333 Z M 1924.371 2918.582 C 1934.122 2924.154 1935.515 2921.368 1929.943 2913.01 C 1914.62 2887.935 1893.724 2893.507 1895.118 2921.368 C 1895.118 2935.298 1899.297 2938.084 1903.476 2926.94 C 1906.262 2918.582 1917.406 2914.403 1924.371 2918.582 Z"
      style="" />
    <path
      d="M 3635.001 2163.564 C 3635.001 2116.201 3636.394 2114.808 3678.185 2118.987 C 3765.945 2127.346 3763.159 2213.713 3675.399 2213.713 C 3637.787 2213.713 3635.001 2209.534 3635.001 2163.564 Z"
      style="" />
    <path
      d="M 6214.876 2181.673 C 6168.907 2132.918 6173.086 2054.908 6224.627 2003.367 C 6277.562 1951.825 6301.244 1951.825 6359.751 2010.332 C 6393.183 2043.764 6407.113 2070.232 6407.113 2100.878 C 6407.113 2198.39 6280.348 2251.324 6214.876 2181.673 Z"
      style="" />
    <path
      d="M 6738.652 2217.892 C 6712.185 2210.927 6701.041 2130.132 6726.115 2130.132 C 6759.548 2130.132 6811.089 2159.385 6811.089 2177.494 C 6811.089 2203.962 6770.692 2224.857 6738.652 2217.892 Z"
      style="" />
    <path
      d="M 6702.434 2008.939 C 6705.22 1976.899 6714.971 1968.541 6749.796 1965.755 C 6798.552 1961.576 6841.736 1993.616 6830.592 2025.655 C 6825.02 2039.585 6801.338 2046.55 6759.548 2046.55 C 6701.041 2046.55 6698.255 2045.157 6702.434 2008.939 Z"
      style="" />
    <path
      d="M 4693.697 1692.723 C 4693.697 1669.042 4700.662 1656.504 4715.985 1656.504 C 4729.916 1656.504 4735.488 1666.256 4732.702 1687.151 C 4725.737 1731.728 4693.697 1735.907 4693.697 1692.723 Z"
      style="" />
    <path
      d="M 4693.697 1567.351 C 4693.697 1536.705 4697.876 1533.919 4725.737 1543.67 C 4742.453 1550.635 4756.383 1564.565 4756.383 1574.316 C 4756.383 1585.46 4742.453 1595.211 4725.737 1597.997 C 4699.269 1602.177 4693.697 1596.604 4693.697 1567.351 Z"
      style="" />
    <path
      d="M 1971.734 4976.074 C 1888.152 4931.497 1842.183 4866.025 1815.715 4753.191 C 1805.964 4710.007 1800.392 4669.609 1804.571 4664.037 C 1814.322 4645.928 2715.607 4648.714 2715.607 4665.43 C 2715.607 4686.326 2634.812 4762.942 2597.2 4776.872 C 2579.091 4783.837 2547.051 4788.016 2524.763 4788.016 C 2496.903 4786.623 2470.435 4800.553 2441.182 4829.807 C 2386.854 4881.349 2311.631 4907.816 2240.587 4898.065 C 2200.189 4892.493 2186.259 4895.279 2186.259 4909.209 C 2186.259 4939.855 2097.106 4999.755 2052.529 4999.755 C 2030.241 4998.362 1994.022 4988.611 1971.734 4976.074 Z"
      style="fill: rgb(97, 1, 138);" />
    <path
      d="M 7794.562 4769.907 C 7772.274 4757.37 7744.414 4735.081 7734.662 4721.151 C 7720.732 4701.649 7698.444 4693.291 7666.404 4693.291 C 7606.505 4693.291 7554.963 4668.216 7502.028 4611.102 C 7468.595 4576.277 7449.093 4567.919 7400.337 4567.919 C 7336.258 4567.919 7274.965 4542.844 7244.319 4506.626 C 7227.603 4485.731 7287.503 4484.337 7878.144 4484.337 C 8237.543 4484.337 8555.152 4480.158 8585.798 4474.586 C 8638.733 4466.228 8638.733 4466.228 8622.017 4498.268 C 8585.798 4566.526 8511.968 4618.068 8474.357 4604.137 C 8461.82 4599.958 8457.641 4602.744 8461.82 4611.102 C 8472.964 4627.819 8407.492 4613.888 8353.164 4586.028 C 8316.945 4567.919 8311.373 4569.312 8272.369 4602.744 C 8243.115 4626.426 8213.862 4637.57 8174.857 4637.57 C 8145.604 4637.57 8120.529 4644.535 8120.529 4652.893 C 8120.529 4659.858 8114.957 4664.037 8107.992 4658.465 C 8101.027 4654.286 8091.276 4664.037 8085.704 4679.36 C 8073.167 4719.758 7943.616 4790.802 7883.716 4790.802 C 7857.248 4790.802 7816.851 4781.051 7794.562 4769.907 Z"
      style="fill: rgb(97, 1, 138);" />
  </g>
  <text
    style="fill: rgb(255, 255, 255); font-family: 'Dancing Script'; font-size: 100px; font-weight: 700; line-height: 56.1729px; text-transform: capitalize; white-space: pre;"
    transform="matrix(1, 0, 0, 1, -55.82111740112305, 86.83285522460936)">
    <tspan x="286.527" y="756.817">Le Petit Moabit</tspan>
    <tspan x="286.527" dy="1em"></tspan>
  </text>
</svg>